{
    "extensionsUsed": [
        "KHR_materials_unlit"
    ],
    "asset": {
        "generator": "Khronos glTF Blender I/O v1.7.33",
        "version": "2.0"
    },
    "scene": 0,
    "scenes": [
        {
            "name": "Scene",
            "nodes": [
                0
            ]
        }
    ],
    "nodes": [
        {
            "mesh": 0,
            "name": "Cube",
            "rotation": [
                0,
                1,
                0,
                0
            ],
            "scale": [
                800,
                800,
                800
            ]
        }
    ],
    "materials": [
        {
            "doubleSided": true,
            "name": "Material.001",
            "pbrMetallicRoughness": {
                "baseColorTexture": {
                    "index": 0
                },
                "metallicFactor": 0,
                "roughnessFactor": 0.5
            },
            "extensions": {
                "KHR_materials_unlit": {}
            }
        }
    ],
    "meshes": [
        {
            "name": "Cube.001",
            "primitives": [
                {
                    "attributes": {
                        "POSITION": 0,
                        "NORMAL": 1,
                        "TANGENT": 2,
                        "TEXCOORD_0": 3
                    },
                    "indices": 4,
                    "material": 0
                }
            ]
        }
    ],
    "textures": [
        {
            "sampler": 0,
            "source": 0
        }
    ],
    "images": [
        {
            "mimeType": "image/png",
            "name": "cubemap",
            "uri": "cubemap.png"
        }
    ],
    "accessors": [
        {
            "bufferView": 0,
            "componentType": 5126,
            "count": 14,
            "max": [
                1,
                1,
                1
            ],
            "min": [
                -1,
                -1,
                -1
            ],
            "type": "VEC3"
        },
        {
            "bufferView": 1,
            "componentType": 5126,
            "count": 14,
            "type": "VEC3"
        },
        {
            "bufferView": 2,
            "componentType": 5126,
            "count": 14,
            "type": "VEC4"
        },
        {
            "bufferView": 3,
            "componentType": 5126,
            "count": 14,
            "type": "VEC2"
        },
        {
            "bufferView": 4,
            "componentType": 5123,
            "count": 36,
            "type": "SCALAR"
        }
    ],
    "bufferViews": [
        {
            "buffer": 0,
            "byteLength": 168,
            "byteOffset": 0
        },
        {
            "buffer": 0,
            "byteLength": 168,
            "byteOffset": 168
        },
        {
            "buffer": 0,
            "byteLength": 224,
            "byteOffset": 336
        },
        {
            "buffer": 0,
            "byteLength": 112,
            "byteOffset": 560
        },
        {
            "buffer": 0,
            "byteLength": 72,
            "byteOffset": 672
        }
    ],
    "samplers": [
        {
            "magFilter": 9729,
            "minFilter": 9987
        }
    ],
    "buffers": [
        {
            "byteLength": 744,
            "uri": "skybox.bin"
        }
    ]
}