{
    "asset": {
        "generator": "Khronos glTF Blender I/O v1.7.33",
        "version": "2.0"
    },
    "scene": 0,
    "scenes": [
        {
            "name": "Scene",
            "nodes": [
                0
            ]
        }
    ],
    "nodes": [
        {
            "mesh": 0,
            "name": "Sphere",
            "translation": [
                0,
                1,
                0
            ]
        }
    ],
    "materials": [
        {
            "doubleSided": true,
            "name": "Material.001",
            "pbrMetallicRoughness": {
                "baseColorFactor": [
                    0.800000011920929,
                    0.800000011920929,
                    0.800000011920929,
                    1
                ],
                "roughnessFactor": 0.15000000596046448
            }
        }
    ],
    "meshes": [
        {
            "name": "Sphere",
            "primitives": [
                {
                    "attributes": {
                        "POSITION": 0,
                        "NORMAL": 1,
                        "TANGENT": 2,
                        "TEXCOORD_0": 3
                    },
                    "indices": 4,
                    "material": 0
                }
            ]
        }
    ],
    "accessors": [
        {
            "bufferView": 0,
            "componentType": 5126,
            "count": 512,
            "max": [
                0.49999985098838806,
                0.5,
                0.4999997019767761
            ],
            "min": [
                -0.4999995231628418,
                -0.5,
                -0.49999937415122986
            ],
            "type": "VEC3"
        },
        {
            "bufferView": 1,
            "componentType": 5126,
            "count": 512,
            "type": "VEC3"
        },
        {
            "bufferView": 2,
            "componentType": 5126,
            "count": 512,
            "type": "VEC4"
        },
        {
            "bufferView": 3,
            "componentType": 5126,
            "count": 512,
            "type": "VEC2"
        },
        {
            "bufferView": 4,
            "componentType": 5123,
            "count": 2880,
            "type": "SCALAR"
        }
    ],
    "bufferViews": [
        {
            "buffer": 0,
            "byteLength": 6144,
            "byteOffset": 0
        },
        {
            "buffer": 0,
            "byteLength": 6144,
            "byteOffset": 6144
        },
        {
            "buffer": 0,
            "byteLength": 8192,
            "byteOffset": 12288
        },
        {
            "buffer": 0,
            "byteLength": 4096,
            "byteOffset": 20480
        },
        {
            "buffer": 0,
            "byteLength": 5760,
            "byteOffset": 24576
        }
    ],
    "buffers": [
        {
            "byteLength": 30336,
            "uri": "data:application/octet-stream;base64,"
        }
    ]
}